<svg width="24" height="24" viewBox="0 0 24 24" fill="none" xmlns="http://www.w3.org/2000/svg">
<path d="M18 21H7C4.243 21 2 18.757 2 16C2 13.243 4.243 11 7 11H11V13H7C5.346 13 4 14.345 4 16C4 17.654 5.346 19 7 19H18V21ZM18 13H15V11H18C19.654 11 21 9.655 21 8C21 6.346 19.654 5 18 5H7V3H18C20.757 3 23 5.243 23 8C23 10.757 20.757 13 18 13Z" fill="#1890FF"/>
<path d="M5.5 3C5.24252 3.01152 4.99941 3.12191 4.82128 3.30818C4.64315 3.49446 4.54373 3.74226 4.54373 4C4.54373 4.25774 4.64315 4.50554 4.82128 4.69182C4.99941 4.87809 5.24252 4.98848 5.5 5C5.75748 4.98848 6.00059 4.87809 6.17872 4.69182C6.35685 4.50554 6.45627 4.25774 6.45627 4C6.45627 3.74226 6.35685 3.49446 6.17872 3.30818C6.00059 3.12191 5.75748 3.01152 5.5 3ZM5.5 7C3.845 7 2.5 5.654 2.5 4C2.5 2.345 3.845 1 5.5 1C7.154 1 8.5 2.345 8.5 4C8.5 5.654 7.154 7 5.5 7ZM19.5 19C19.2425 19.0115 18.9994 19.1219 18.8213 19.3082C18.6431 19.4945 18.5437 19.7423 18.5437 20C18.5437 20.2577 18.6431 20.5055 18.8213 20.6918C18.9994 20.8781 19.2425 20.9885 19.5 21C19.7575 20.9885 20.0006 20.8781 20.1787 20.6918C20.3569 20.5055 20.4563 20.2577 20.4563 20C20.4563 19.7423 20.3569 19.4945 20.1787 19.3082C20.0006 19.1219 19.7575 19.0115 19.5 19ZM19.5 23C17.846 23 16.5 21.654 16.5 20C16.5 18.346 17.846 17 19.5 17C21.154 17 22.5 18.346 22.5 20C22.5 21.654 21.154 23 19.5 23ZM13 11C12.7425 11.0115 12.4994 11.1219 12.3213 11.3082C12.1431 11.4945 12.0437 11.7423 12.0437 12C12.0437 12.2577 12.1431 12.5055 12.3213 12.6918C12.4994 12.8781 12.7425 12.9885 13 13C13.2575 12.9885 13.5006 12.8781 13.6787 12.6918C13.8569 12.5055 13.9563 12.2577 13.9563 12C13.9563 11.7423 13.8569 11.4945 13.6787 11.3082C13.5006 11.1219 13.2575 11.0115 13 11ZM13 15C11.345 15 10 13.655 10 12C10 10.345 11.345 9 13 9C14.655 9 16 10.345 16 12C16 13.655 14.655 15 13 15Z" fill="#8BB3F1"/>
</svg>
