<svg width="16" height="16" viewBox="0 0 16 16" fill="none" xmlns="http://www.w3.org/2000/svg">
<path d="M14.5961 3.10324H11.5271V2.1821C11.5417 1.6192 11.3326 1.07349 10.9456 0.664489C10.5585 0.255488 10.0252 0.0165449 9.46238 0L6.52676 0C5.96399 0.0165435 5.43073 0.255512 5.04384 0.664536C4.65696 1.07356 4.448 1.61928 4.46276 2.1821V3.10324H1.39381C1.23205 3.11119 1.07956 3.18105 0.967892 3.29835C0.856226 3.41564 0.793945 3.57139 0.793945 3.73333C0.793945 3.89528 0.856226 4.05103 0.967892 4.16832C1.07956 4.28561 1.23205 4.35547 1.39381 4.36343H2.26314V13.8179C2.24858 14.3807 2.45761 14.9263 2.84445 15.3352C3.2313 15.7442 3.76444 15.9833 4.32714 16H11.662C12.2248 15.9835 12.758 15.7445 13.1449 15.3355C13.5318 14.9264 13.7408 14.3807 13.726 13.8179V4.3619H14.5953C14.7569 4.35395 14.9092 4.28418 15.0207 4.16703C15.1322 4.04987 15.1944 3.89432 15.1944 3.73257C15.1944 3.57082 15.1322 3.41527 15.0207 3.29812C14.9092 3.18097 14.7569 3.11119 14.5953 3.10324H14.5961ZM6.63647 12.0503C6.641 12.1154 6.63207 12.1808 6.61024 12.2424C6.58842 12.3039 6.55416 12.3604 6.50961 12.4081C6.46505 12.4559 6.41115 12.4939 6.35125 12.52C6.29135 12.546 6.22674 12.5594 6.16143 12.5594C6.09611 12.5594 6.0315 12.546 5.9716 12.52C5.9117 12.4939 5.8578 12.4559 5.81325 12.4081C5.76869 12.3604 5.73444 12.3039 5.71261 12.2424C5.69079 12.1808 5.68186 12.1154 5.68638 12.0503V6.73295C5.68186 6.6678 5.69079 6.60241 5.71261 6.54085C5.73444 6.47929 5.76869 6.42288 5.81325 6.37513C5.8578 6.32737 5.9117 6.2893 5.9716 6.26326C6.0315 6.23723 6.09611 6.22379 6.16143 6.22379C6.22674 6.22379 6.29135 6.23723 6.35125 6.26326C6.41115 6.2893 6.46505 6.32737 6.50961 6.37513C6.55416 6.42288 6.58842 6.47929 6.61024 6.54085C6.63207 6.60241 6.641 6.6678 6.63647 6.73295V12.0503ZM10.3043 12.0503C10.3088 12.1154 10.2999 12.1808 10.2781 12.2424C10.2562 12.3039 10.222 12.3604 10.1774 12.4081C10.1329 12.4559 10.079 12.4939 10.0191 12.52C9.95916 12.546 9.89455 12.5594 9.82924 12.5594C9.76392 12.5594 9.69931 12.546 9.63941 12.52C9.57951 12.4939 9.52561 12.4559 9.48106 12.4081C9.4365 12.3604 9.40225 12.3039 9.38042 12.2424C9.35859 12.1808 9.34967 12.1154 9.35419 12.0503V6.73295C9.34967 6.6678 9.35859 6.60241 9.38042 6.54085C9.40225 6.47929 9.4365 6.42288 9.48106 6.37513C9.52561 6.32737 9.57951 6.2893 9.63941 6.26326C9.69931 6.23723 9.76392 6.22379 9.82924 6.22379C9.89455 6.22379 9.95916 6.23723 10.0191 6.26326C10.079 6.2893 10.1329 6.32737 10.1774 6.37513C10.222 6.42288 10.2562 6.47929 10.2781 6.54085C10.2999 6.60241 10.3088 6.6678 10.3043 6.73295V12.0503ZM10.3332 3.10324H5.66047V2.1821C5.65452 1.94492 5.74255 1.715 5.90539 1.54245C6.06824 1.3699 6.29268 1.26872 6.52981 1.26095H9.46543C9.70269 1.26832 9.92737 1.36939 10.0903 1.54202C10.2532 1.71466 10.3411 1.9448 10.3348 2.1821V3.10324H10.3332Z" fill="#D1D0D6"/>
</svg>
