<svg width="16" height="16" viewBox="0 0 16 16" fill="none" xmlns="http://www.w3.org/2000/svg">
<g clip-path="url(#clip0_2_252)">
<path d="M10.6071 0.592593H2.37364C1.05901 0.592593 0 1.65531 0 2.96623V13.6264C0 14.941 1.06272 16 2.37364 16H13.0338C14.3484 16 15.4074 14.9373 15.4074 13.6264V5.5137L14.2222 6.69889V13.6264C14.2222 14.2843 13.6923 14.8148 13.0338 14.8148H2.37364C1.71571 14.8148 1.18519 14.2849 1.18519 13.6264V2.96623C1.18519 2.3083 1.71514 1.77778 2.37364 1.77778H9.42192L10.6071 0.592593ZM5.01062 10.9196L8.60587 9.89888L6.03787 7.34657L5.01062 10.9196ZM14.6131 3.92832L12.045 1.37598L6.39528 6.99097L8.96328 9.54306L14.6131 3.92832ZM15.8066 1.78435L14.2015 0.18924C13.9356 -0.0751005 13.4901 -0.0607079 13.2064 0.221126L12.4359 0.986671L15.0039 3.53899L15.7744 2.77321C16.0581 2.49136 16.0725 2.04872 15.8066 1.78435Z" fill="#1890FF"/>
</g>
<defs>
<clipPath id="clip0_2_252">
<rect width="16" height="16" fill="white"/>
</clipPath>
</defs>
</svg>
