<svg width="24" height="24" viewBox="0 0 24 24" fill="none" xmlns="http://www.w3.org/2000/svg">
<path d="M12 23.1598C10.44 23.1598 9.00003 22.9198 7.68003 22.3198C6.36003 21.7198 5.16003 20.9999 4.08003 19.9199C3.00003 18.8399 2.28003 17.6399 1.68003 16.3199C1.08003 14.8799 0.840027 13.4398 0.840027 11.9998C0.840027 10.4398 1.08003 8.99984 1.68003 7.67984C2.28003 6.35984 3.00003 5.15984 4.08003 4.07984C5.16003 2.99984 6.36003 2.27984 7.68003 1.67984C9.00003 1.07984 10.44 0.839844 12 0.839844C13.56 0.839844 15 1.07984 16.32 1.67984C17.64 2.27984 18.84 2.99984 19.92 4.07984C21 5.15984 21.72 6.35984 22.32 7.67984C22.92 9.11984 23.16 10.5598 23.16 11.9998C23.16 13.5598 22.92 14.9999 22.32 16.3199C21.72 17.6399 21 18.8399 19.92 19.9199C18.84 20.9999 17.64 21.7198 16.32 22.3198C15 22.9198 13.56 23.1598 12 23.1598ZM12 2.63984C6.84003 2.63984 2.64003 6.83985 2.64003 11.9998C2.64003 17.1598 6.84003 21.2399 12 21.2399C17.16 21.2399 21.24 17.0398 21.24 11.9998C21.24 6.95985 17.16 2.63984 12 2.63984Z" fill="#1890FF"/>
<path d="M15.2 16H8.80002C8.35752 16 8.00002 15.6425 8.00002 15.2L8 8.8C8 8.3575 8.3575 8 8.8 8H15.2C15.6425 8 16 8.3575 16 8.8V15.2C16 15.6425 15.6425 16 15.2 16Z" fill="#8BB3F1"/>
</svg>
