<svg width="24" height="24" viewBox="0 0 24 24" fill="none" xmlns="http://www.w3.org/2000/svg">
<path fill-rule="evenodd" clip-rule="evenodd" d="M21.6874 14.9637H13.3308C12.8692 14.9637 12.4951 14.5969 12.4951 14.1445V13.02H9.80781C9.7884 13.0437 9.76768 13.0663 9.74577 13.0877L6.79797 15.9774V18.9117H12.4951V18.2404C12.4951 17.788 12.8692 17.4212 13.3308 17.4212H21.6874C22.1489 17.4212 22.5231 17.788 22.5231 18.2404V21.5171C22.5231 21.9696 22.1489 22.3363 21.6874 22.3363H13.3308C12.8692 22.3363 12.4951 21.9696 12.4951 21.5171V20.595H5.95367C5.48738 20.595 5.10937 20.2181 5.10937 19.7533V16.2595L1.87382 13.0877C1.71563 12.9339 1.62665 12.7245 1.62665 12.5061C1.62665 12.2876 1.71563 12.0783 1.87382 11.9245L5.10937 8.7527V6.51519C4.09491 6.15658 3.36801 5.18925 3.36801 4.05199C3.36801 2.60939 4.53746 1.43994 5.98006 1.43994C7.42265 1.43994 8.5921 2.60939 8.5921 4.05199C8.59209 4.60166 8.41867 5.13732 8.09654 5.5827C7.77441 6.02809 7.31998 6.36051 6.79795 6.53262V8.8117C6.79794 8.87892 6.78986 8.94589 6.77389 9.01118L9.14617 11.3367H12.4951V10.8677C12.4951 10.4153 12.8692 10.0485 13.3308 10.0485H21.6874C22.1489 10.0485 22.5231 10.4153 22.5231 10.8677V14.1445C22.5231 14.5969 22.1489 14.9637 21.6874 14.9637ZM20.8517 20.698V19.0596L14.1664 19.0596V19.176C14.3091 19.3267 14.3967 19.5298 14.3967 19.7533C14.3967 19.9769 14.3091 20.1799 14.1664 20.3306V20.698H20.8517ZM3.64543 12.5061L5.8098 14.6278L7.97416 12.5061L5.8098 10.3844L3.64543 12.5061ZM14.1664 13.3253H20.8517V11.6869H14.2376C14.3412 11.8298 14.3969 12.0019 14.3967 12.1784C14.3967 12.4019 14.3091 12.605 14.1664 12.7557V13.3253ZM6 5C6.55228 5 7 4.55228 7 4C7 3.44772 6.55228 3 6 3C5.44772 3 5 3.44772 5 4C5 4.55228 5.44772 5 6 5Z" fill="#1890FF"/>
<path fill-rule="evenodd" clip-rule="evenodd" d="M6 7C7.65685 7 9 5.65685 9 4C9 2.34315 7.65685 1 6 1C4.34315 1 3 2.34315 3 4C3 5.65685 4.34315 7 6 7ZM6 5C6.55228 5 7 4.55228 7 4C7 3.44772 6.55228 3 6 3C5.44772 3 5 3.44772 5 4C5 4.55228 5.44772 5 6 5Z" fill="#8BB3F1"/>
</svg>
