<svg width="24" height="24" viewBox="0 0 24 24" fill="none" xmlns="http://www.w3.org/2000/svg">
<path d="M12 23.16C10.44 23.16 9.00003 22.92 7.68003 22.32C6.36003 21.72 5.16003 21 4.08003 19.92C3.00003 18.84 2.28003 17.64 1.68003 16.32C1.08003 14.88 0.840027 13.44 0.840027 12C0.840027 10.44 1.08003 8.99997 1.68003 7.67997C2.28003 6.35997 3.00003 5.15996 4.08003 4.07996C5.16003 2.99996 6.36003 2.27997 7.68003 1.67997C9.00003 1.07997 10.44 0.839966 12 0.839966C13.56 0.839966 15 1.07997 16.32 1.67997C17.64 2.27997 18.84 2.99996 19.92 4.07996C21 5.15996 21.72 6.35997 22.32 7.67997C22.92 9.11997 23.16 10.56 23.16 12C23.16 13.56 22.92 15 22.32 16.32C21.72 17.64 21 18.84 19.92 19.92C18.84 21 17.64 21.72 16.32 22.32C15 22.92 13.56 23.16 12 23.16ZM12 2.63997C6.84003 2.63997 2.64003 6.83997 2.64003 12C2.64003 17.16 6.84003 21.24 12 21.24C17.16 21.24 21.24 17.04 21.24 12C21.24 6.95997 17.16 2.63997 12 2.63997ZM9.36003 8.27997V15.6C9.36003 16.08 9.96003 16.44 10.32 16.2L16.32 12.48C16.68 12.24 16.68 11.64 16.32 11.4L10.32 7.79997C9.84003 7.55997 9.36003 7.79997 9.36003 8.27997Z" fill="#1890FF"/>
<path d="M9.36003 15.6V8.27997C9.36003 7.79997 9.84003 7.55997 10.32 7.79997L16.32 11.4C16.68 11.64 16.68 12.24 16.32 12.48L10.32 16.2C9.96003 16.44 9.36003 16.08 9.36003 15.6Z" fill="#1890FF"/>
<path d="M9.36005 15.6201V8.30012C9.36005 7.82012 9.84005 7.58012 10.32 7.82012L16.32 11.4201C16.68 11.6601 16.68 12.2601 16.32 12.5001L10.32 16.2201C9.96005 16.4601 9.36005 16.1001 9.36005 15.6201Z" fill="#8BB3F1"/>
</svg>
