<svg width="24" height="24" viewBox="0 0 24 24" fill="none" xmlns="http://www.w3.org/2000/svg">
<path d="M6.78694 20.1071C6.78493 20.8737 6.4795 21.6084 5.93741 22.1505C5.39532 22.6925 4.66067 22.998 3.89405 23C3.12742 22.998 2.39277 22.6925 1.85068 22.1505C1.3086 21.6084 1.00317 20.8737 1.00115 20.1071C0.995286 19.495 1.19038 18.8978 1.5565 18.4072C1.92263 17.9165 2.43959 17.5596 3.02809 17.391L3.02809 11.3267C3.02367 10.8569 3.11295 10.3909 3.2907 9.95602C3.46845 9.52112 3.73111 9.12602 4.06332 8.79381C4.39554 8.46159 4.79064 8.19893 5.22554 8.02118C5.66044 7.84343 6.12641 7.75415 6.5962 7.75857L7.78643 7.75857C8.10687 6.10548 9.37466 4.87712 11.1346 4.42188L11.1346 1.86596C11.1346 1.35605 11.4906 0.999999 12.0005 1C12.5117 1 12.8665 1.35605 12.8665 1.86596L12.8665 4.42188C14.5666 4.86313 15.7606 6.05844 16.2032 7.7573L17.4048 7.7573C17.8747 7.75288 18.3408 7.8422 18.7758 8.02003C19.2108 8.19786 19.6059 8.46063 19.9382 8.79298C20.2704 9.12533 20.533 9.52058 20.7107 9.95563C20.8884 10.3907 20.9775 10.8568 20.9729 11.3267L20.9729 17.3922C21.5612 17.5608 22.078 17.9176 22.4441 18.4079C22.8102 18.8983 23.0055 19.4952 22.9999 20.1071C22.9979 20.8737 22.6924 21.6084 22.1503 22.1505C21.6083 22.6926 20.8736 22.998 20.107 23C19.3404 22.998 18.6057 22.6926 18.0636 22.1505C17.5215 21.6084 17.2161 20.8737 17.2141 20.1071C17.2082 19.495 17.4033 18.8978 17.7694 18.4072C18.1356 17.9165 18.6525 17.5596 19.241 17.391L19.241 11.3267C19.241 10.3514 18.3801 9.49049 17.4048 9.49049L16.2146 9.49049C15.8942 11.1436 14.6264 12.3719 12.8665 12.8272L12.8665 17.3922C13.455 17.5608 13.9719 17.9178 14.3381 18.4084C14.7042 18.8991 14.8993 19.4962 14.8934 20.1084C14.8911 20.8748 14.5855 21.6091 14.0434 22.1509C13.5014 22.6927 12.7669 22.998 12.0005 23C11.2339 22.998 10.4992 22.6926 9.95715 22.1505C9.41507 21.6084 9.10963 20.8737 9.10762 20.1071C9.10175 19.495 9.29684 18.8978 9.66297 18.4072C10.0291 17.9165 10.5461 17.5596 11.1346 17.391L11.1346 12.8259C9.43442 12.3834 8.24039 11.1881 7.79787 9.48922L6.5962 9.48922C5.62089 9.48922 4.76001 10.3501 4.76001 11.3254L4.76001 17.391C5.34851 17.5596 5.86546 17.9165 6.23159 18.4072C6.59772 18.8978 6.79281 19.495 6.78694 20.1071ZM18.5645 20.1071C18.5645 21.0227 19.1914 21.6483 20.107 21.6483C21.0225 21.6483 21.6482 21.0227 21.6482 20.1071C21.6482 19.1915 21.0225 18.5646 20.107 18.5646C19.1914 18.5646 18.5645 19.1915 18.5645 20.1071ZM10.6501 20.1071C10.6501 20.9171 11.1905 21.4588 12.0005 21.4588C12.8105 21.4588 13.3522 20.9184 13.3522 20.1071C13.3522 19.2971 12.8105 18.7554 12.0005 18.7554C11.1905 18.7554 10.6488 19.2971 10.6488 20.1071L10.6501 20.1071ZM2.54233 20.1071C2.54233 20.9171 3.08276 21.4588 3.89405 21.4588C4.70406 21.4588 5.24576 20.9184 5.24576 20.1071C5.24576 19.2971 4.70406 18.7554 3.89405 18.7554C3.08404 18.7554 2.54233 19.2971 2.54233 20.1071ZM9.29836 8.62326C9.30037 9.3393 9.58571 10.0254 10.092 10.5317C10.5983 11.0381 11.2845 11.3234 12.0005 11.3254C12.7166 11.3234 13.4027 11.0381 13.909 10.5317C14.4153 10.0254 14.7007 9.3393 14.7027 8.62326C14.7007 7.90722 14.4153 7.22109 13.909 6.71477C13.4027 6.20845 12.7166 5.92312 12.0005 5.9211C10.514 5.9211 9.29836 7.13675 9.29836 8.62326Z" fill="#1890FF"/>
<path fill-rule="evenodd" clip-rule="evenodd" d="M4 23C5.65685 23 7 21.6569 7 20C7 18.3431 5.65685 17 4 17C2.34315 17 1 18.3431 1 20C1 21.6569 2.34315 23 4 23ZM4 21C4.55228 21 5 20.5523 5 20C5 19.4477 4.55228 19 4 19C3.44772 19 3 19.4477 3 20C3 20.5523 3.44772 21 4 21Z" fill="#8BB3F1"/>
<path fill-rule="evenodd" clip-rule="evenodd" d="M12 23C13.6569 23 15 21.6569 15 20C15 18.3431 13.6569 17 12 17C10.3431 17 9 18.3431 9 20C9 21.6569 10.3431 23 12 23ZM12 21C12.5523 21 13 20.5523 13 20C13 19.4477 12.5523 19 12 19C11.4477 19 11 19.4477 11 20C11 20.5523 11.4477 21 12 21Z" fill="#8BB3F1"/>
<path fill-rule="evenodd" clip-rule="evenodd" d="M20 23C21.6569 23 23 21.6569 23 20C23 18.3431 21.6569 17 20 17C18.3431 17 17 18.3431 17 20C17 21.6569 18.3431 23 20 23ZM20 21C20.5523 21 21 20.5523 21 20C21 19.4477 20.5523 19 20 19C19.4477 19 19 19.4477 19 20C19 20.5523 19.4477 21 20 21Z" fill="#8BB3F1"/>
</svg>
